<svg width="25" height="24" viewBox="0 0 25 24" fill="none" xmlns="http://www.w3.org/2000/svg">
<path d="M15.5 22.75H9.5C4.07 22.75 1.75 20.43 1.75 15V9C1.75 3.57 4.07 1.25 9.5 1.25H11.5C11.91 1.25 12.25 1.59 12.25 2C12.25 2.41 11.91 2.75 11.5 2.75H9.5C4.89 2.75 3.25 4.39 3.25 9V15C3.25 19.61 4.89 21.25 9.5 21.25H15.5C20.11 21.25 21.75 19.61 21.75 15V13C21.75 12.59 22.09 12.25 22.5 12.25C22.91 12.25 23.25 12.59 23.25 13V15C23.25 20.43 20.93 22.75 15.5 22.75Z" fill="#0C0C0C"/>
<path d="M8.99935 17.69C8.38935 17.69 7.82935 17.47 7.41935 17.07C6.92935 16.58 6.71935 15.87 6.82935 15.12L7.25935 12.11C7.33935 11.53 7.71935 10.78 8.12935 10.37L16.0093 2.49C17.9993 0.5 20.0193 0.5 22.0093 2.49C23.0993 3.58 23.5893 4.69 23.4893 5.8C23.3993 6.7 22.9193 7.58 22.0093 8.48L14.1293 16.36C13.7193 16.77 12.9693 17.15 12.3893 17.23L9.37935 17.66C9.24935 17.69 9.11935 17.69 8.99935 17.69ZM17.0693 3.55L9.18935 11.43C8.99935 11.62 8.77935 12.06 8.73935 12.32L8.30935 15.33C8.26935 15.62 8.32935 15.86 8.47935 16.01C8.62935 16.16 8.86935 16.22 9.15935 16.18L12.1693 15.75C12.4293 15.71 12.8793 15.49 13.0593 15.3L20.9393 7.42C21.5893 6.77 21.9293 6.19 21.9793 5.65C22.0393 5 21.6993 4.31 20.9393 3.54C19.3393 1.94 18.2393 2.39 17.0693 3.55Z" fill="#0C0C0C"/>
<path d="M20.3515 9.83C20.2815 9.83 20.2115 9.82 20.1515 9.8C17.5215 9.06 15.4315 6.97 14.6915 4.34C14.5815 3.94 14.8115 3.53 15.2115 3.41C15.6115 3.3 16.0215 3.53 16.1315 3.93C16.7315 6.06 18.4215 7.75 20.5515 8.35C20.9515 8.46 21.1815 8.88 21.0715 9.28C20.9815 9.62 20.6815 9.83 20.3515 9.83Z" fill="#0C0C0C"/>
</svg>
