<svg width="25" height="24" viewBox="0 0 25 24" fill="none" xmlns="http://www.w3.org/2000/svg">
<path d="M16.7794 22.1H12.9794C12.4194 22.1 11.1994 21.93 10.5494 21.28L7.51937 18.94L8.43937 17.75L11.5394 20.15C11.7894 20.39 12.4194 20.59 12.9794 20.59H16.7794C17.6794 20.59 18.6494 19.87 18.8494 19.06L21.2694 11.71C21.4294 11.27 21.3994 10.87 21.1894 10.58C20.9694 10.27 20.5694 10.09 20.0794 10.09H16.0794C15.5594 10.09 15.0794 9.87 14.7494 9.49C14.4094 9.1 14.2594 8.58 14.3394 8.04L14.8394 4.83C14.9594 4.27 14.5794 3.64 14.0394 3.46C13.5494 3.28 12.9194 3.54 12.6994 3.86L8.59938 9.96L7.35938 9.13L11.4594 3.03C12.0894 2.09 13.4694 1.64 14.5494 2.05C15.7994 2.46 16.5994 3.84 16.3194 5.12L15.8294 8.27C15.8194 8.34 15.8194 8.44 15.8894 8.52C15.9394 8.57 16.0094 8.6 16.0894 8.6H20.0894C21.0694 8.6 21.9194 9.01 22.4194 9.72C22.9094 10.41 23.0094 11.32 22.6894 12.2L20.2994 19.48C19.9294 20.93 18.3894 22.1 16.7794 22.1Z" fill="#0C0C0C"/>
<path d="M5.87891 21H4.87891C3.02891 21 2.12891 20.13 2.12891 18.35V8.55C2.12891 6.77 3.02891 5.9 4.87891 5.9H5.87891C7.72891 5.9 8.62891 6.77 8.62891 8.55V18.35C8.62891 20.13 7.72891 21 5.87891 21ZM4.87891 7.4C3.78891 7.4 3.62891 7.66 3.62891 8.55V18.35C3.62891 19.24 3.78891 19.5 4.87891 19.5H5.87891C6.96891 19.5 7.12891 19.24 7.12891 18.35V8.55C7.12891 7.66 6.96891 7.4 5.87891 7.4H4.87891Z" fill="#0C0C0C"/>
</svg>
