<svg width="33" height="17" viewBox="0 0 33 17" fill="none" xmlns="http://www.w3.org/2000/svg">
<path d="M22.4 2.30304H8.39062V12.7883H22.4V2.30304Z" fill="#AECDFB"/>
<path d="M23.8424 14.5917H16.0915C15.8924 14.5917 15.7308 14.4304 15.7308 14.231C15.7308 14.0315 15.8924 13.8703 16.0915 13.8703H23.4818V1.22135H7.30827V2.48986C7.30827 2.68895 7.14669 2.85053 6.94759 2.85053C6.7485 2.85053 6.58691 2.68895 6.58691 2.48986V0.860677C6.58691 0.661583 6.7485 0.5 6.94759 0.5H23.8424C24.0419 0.5 24.2031 0.661583 24.2031 0.860677V14.231C24.2031 14.4301 24.0419 14.5917 23.8424 14.5917Z" fill="#0C0C0C"/>
<path d="M9.98449 14.5917H6.94759C6.7485 14.5917 6.58691 14.4305 6.58691 14.231V12.4143C6.58691 12.2148 6.7485 12.0536 6.94759 12.0536C7.14669 12.0536 7.30827 12.2148 7.30827 12.4143V13.8703H9.98449C10.1836 13.8703 10.3452 14.0315 10.3452 14.231C10.3452 14.4305 10.1836 14.5917 9.98449 14.5917Z" fill="#0C0C0C"/>
<path d="M32.1008 14.5917C31.9024 14.5917 31.7416 14.4319 31.7401 14.2335L31.7059 9.13464L28.0082 5.2534H24.2038V13.8703H26.2542C26.4537 13.8703 26.6149 14.0316 26.6149 14.231C26.6149 14.4305 26.4537 14.5917 26.2542 14.5917H23.8431C23.6436 14.5917 23.4824 14.4305 23.4824 14.231V4.89272C23.4824 4.69363 23.6436 4.53204 23.8431 4.53204H28.1629C28.2614 4.53204 28.3559 4.57244 28.4241 4.64385L32.3266 8.74043C32.3901 8.80715 32.4254 8.89515 32.4261 8.98677L32.4615 14.2285C32.4629 14.4279 32.3024 14.5902 32.1033 14.5917C32.1026 14.5917 32.1015 14.5917 32.1008 14.5917Z" fill="#0C0C0C"/>
<path d="M29.1755 9.34961H26.1224C25.9229 9.34961 25.7617 9.18839 25.7617 8.98893V4.89272C25.7617 4.69363 25.9229 4.53204 26.1224 4.53204C26.3219 4.53204 26.4831 4.69363 26.4831 4.89272V8.62861H29.1755C29.375 8.62861 29.5362 8.7902 29.5362 8.98929C29.5362 9.18839 29.3746 9.34961 29.1755 9.34961Z" fill="#0C0C0C"/>
<path d="M11.8934 16.5C10.6422 16.5 9.62402 15.4822 9.62402 14.231C9.62402 12.9798 10.6419 11.962 11.8934 11.962C13.1446 11.962 14.1624 12.9798 14.1624 14.231C14.1624 15.4822 13.1442 16.5 11.8934 16.5ZM11.8934 12.6833C11.04 12.6833 10.3454 13.3776 10.3454 14.231C10.3454 15.0844 11.0397 15.7787 11.8934 15.7787C12.7471 15.7787 13.4411 15.0844 13.4411 14.231C13.4411 13.3776 12.7468 12.6833 11.8934 12.6833Z" fill="#0C0C0C"/>
<path d="M28.162 16.5C26.9104 16.5 25.8926 15.4822 25.8926 14.231C25.8926 12.9798 26.9104 11.962 28.162 11.962C29.4131 11.962 30.431 12.9798 30.431 14.231C30.431 15.4822 29.4131 16.5 28.162 16.5ZM28.162 12.6833C27.3086 12.6833 26.6139 13.3776 26.6139 14.231C26.6139 15.0844 27.3086 15.7787 28.162 15.7787C29.0153 15.7787 29.7096 15.0844 29.7096 14.231C29.7096 13.3776 29.0153 12.6833 28.162 12.6833Z" fill="#0C0C0C"/>
<path d="M15.3951 7.90617H0.360677C0.161583 7.90617 0 7.74459 0 7.54549C0 7.3464 0.161583 7.18481 0.360677 7.18481H15.3951C15.5942 7.18481 15.7558 7.3464 15.7558 7.54549C15.7558 7.74459 15.5942 7.90617 15.3951 7.90617Z" fill="#0C0C0C"/>
<path d="M15.3945 4.85264H4.17708C3.97799 4.85264 3.81641 4.69106 3.81641 4.49196C3.81641 4.29287 3.97799 4.13129 4.17708 4.13129H15.3949C15.594 4.13129 15.7555 4.29287 15.7555 4.49196C15.7555 4.69106 15.5936 4.85264 15.3945 4.85264Z" fill="#0C0C0C"/>
<path d="M15.3945 10.9596H4.17708C3.97799 10.9596 3.81641 10.7984 3.81641 10.599C3.81641 10.3995 3.97799 10.2383 4.17708 10.2383H15.3949C15.594 10.2383 15.7555 10.3995 15.7555 10.599C15.7555 10.7984 15.5936 10.9596 15.3945 10.9596Z" fill="#0C0C0C"/>
</svg>
