<svg width="25" height="21" viewBox="0 0 25 21" fill="none" xmlns="http://www.w3.org/2000/svg">
<path d="M21.5049 14.4225H3.46974C2.62614 14.4225 1.94238 13.7387 1.94238 12.8951V3.46986C1.94238 2.62626 2.62614 1.9425 3.46974 1.9425H21.5047C22.3483 1.9425 23.032 2.62626 23.032 3.46986V12.8948C23.0323 13.7387 22.3485 14.4225 21.5049 14.4225Z" fill="#AECDFB"/>
<path d="M14.9977 9.47437H5.77945C5.62627 9.47437 5.50195 9.35005 5.50195 9.19687C5.50195 9.04369 5.62627 8.91937 5.77945 8.91937H14.9977C15.1511 8.91937 15.2752 9.04369 15.2752 9.19687C15.2752 9.35005 15.1511 9.47437 14.9977 9.47437Z" fill="#0C0C0C"/>
<path d="M14.3659 6.88166H3.58512C3.43194 6.88166 3.30762 6.75734 3.30762 6.60416C3.30762 6.45098 3.43194 6.32666 3.58512 6.32666H14.3659C14.5194 6.32666 14.6434 6.45098 14.6434 6.60416C14.6434 6.75734 14.5191 6.88166 14.3659 6.88166Z" fill="#0C0C0C"/>
<path d="M7.03792 16.3649H1.52458C0.684034 16.3649 0 15.6809 0 14.8404V1.52458C0 0.684034 0.684034 0 1.52458 0H23.4503C24.2909 0 24.9749 0.684034 24.9749 1.52458V2.59628C24.9749 2.74946 24.8508 2.87378 24.6974 2.87378C24.5439 2.87378 24.4199 2.74946 24.4199 2.59628V1.52458C24.4199 0.989838 23.9851 0.554997 23.4503 0.554997H1.52458C0.989838 0.554997 0.554998 0.989838 0.554998 1.52458V14.8401C0.554998 15.3748 0.989838 15.8097 1.52458 15.8097H7.03792C7.1911 15.8097 7.31542 15.9337 7.31542 16.0872C7.31542 16.2406 7.1911 16.3649 7.03792 16.3649Z" fill="#0C0C0C"/>
<path d="M12.7147 16.3649H10.298C10.1448 16.3649 10.0205 16.2409 10.0205 16.0874C10.0205 15.934 10.1448 15.8099 10.298 15.8099H12.7147C12.8682 15.8099 12.9922 15.934 12.9922 16.0874C12.9922 16.2409 12.8682 16.3649 12.7147 16.3649Z" fill="#0C0C0C"/>
<path d="M23.4502 16.3649H15.131C14.9776 16.3649 14.8535 16.2408 14.8535 16.0874C14.8535 15.9339 14.9776 15.8099 15.131 15.8099H23.4502C23.9849 15.8099 24.4198 15.3751 24.4198 14.8403V13.6743H2.85172C2.69854 13.6743 2.57422 13.5502 2.57422 13.3968C2.57422 13.2433 2.69854 13.1193 2.85172 13.1193H24.6973C24.8507 13.1193 24.9748 13.2433 24.9748 13.3968V14.8403C24.9748 15.6809 24.2907 16.3649 23.4502 16.3649Z" fill="#0C0C0C"/>
<path d="M18.193 21H7.23648C7.0833 21 6.95898 20.876 6.95898 20.7225C6.95898 19.6137 7.86113 18.7115 8.9703 18.7115H9.16815L10.0337 16.0028C10.0803 15.8572 10.2374 15.7756 10.3825 15.8233C10.5285 15.8699 10.6089 16.0259 10.5623 16.1721L9.63518 19.0736C9.59855 19.1885 9.49144 19.2665 9.37073 19.2665H8.97002C8.26184 19.2665 7.67021 19.7743 7.54034 20.445H17.8886C17.7587 19.7743 17.1668 19.2665 16.4589 19.2665H16.0584C15.9377 19.2665 15.8309 19.1885 15.7943 19.0736L14.8671 16.1721C14.8202 16.0261 14.901 15.8699 15.0467 15.8233C15.1935 15.7747 15.3489 15.8572 15.3955 16.0028L16.261 18.7115H16.4589C17.568 18.7115 18.4702 19.6137 18.4702 20.7225C18.4705 20.876 18.3461 21 18.193 21Z" fill="#0C0C0C"/>
<path d="M12.9961 14.8434H12.4328C12.2796 14.8434 12.1553 14.7194 12.1553 14.566C12.1553 14.4125 12.2796 14.2885 12.4328 14.2885H12.9961C13.1496 14.2885 13.2736 14.4125 13.2736 14.566C13.2736 14.7194 13.1496 14.8434 12.9961 14.8434Z" fill="#0C0C0C"/>
<path d="M22.2824 8.97416C22.2405 8.97416 22.1983 8.96414 22.1595 8.94383L20.4203 8.02937L18.6808 8.94383C18.5921 8.99078 18.4843 8.98313 18.403 8.92378C18.3218 8.8647 18.2812 8.76473 18.298 8.66582L18.6301 6.72878L17.2232 5.35723C17.1515 5.28707 17.1254 5.18235 17.1565 5.08687C17.1876 4.99139 17.2702 4.92176 17.3693 4.90725L19.314 4.62477L20.1839 2.86259C20.2725 2.68244 20.5682 2.68244 20.6568 2.86259L21.5267 4.62477L23.4712 4.90725C23.5706 4.92176 23.6529 4.99139 23.6843 5.08687C23.7151 5.18235 23.6895 5.28707 23.6175 5.35723L22.2104 6.72878L22.5425 8.66582C22.5593 8.76473 22.5187 8.8647 22.4377 8.92378C22.3913 8.95728 22.337 8.97416 22.2824 8.97416ZM17.9741 5.35274L19.0978 6.44813C19.1597 6.50854 19.1882 6.5961 19.1735 6.68156L18.9081 8.22825L20.2973 7.4979C20.3746 7.45728 20.4659 7.45728 20.5432 7.4979L21.9321 8.22825L21.667 6.68156C21.6523 6.5961 21.6808 6.5088 21.7427 6.44813L22.8666 5.35274L21.3136 5.12723C21.2276 5.11483 21.1535 5.06076 21.115 4.98295L20.4203 3.57527L19.7255 4.98242C19.687 5.06023 19.6129 5.1143 19.5269 5.1267L17.9741 5.35274Z" fill="#0C0C0C"/>
</svg>
