<svg width="25" height="27" viewBox="0 0 25 27" fill="none" xmlns="http://www.w3.org/2000/svg">
<path d="M12.3373 18.0213C14.867 18.0213 16.9177 15.9706 16.9177 13.4408C16.9177 10.9111 14.867 8.86041 12.3373 8.86041C9.80757 8.86041 7.75684 10.9111 7.75684 13.4408C7.75684 15.9706 9.80757 18.0213 12.3373 18.0213Z" fill="#AECDFB"/>
<path d="M12.337 27C12.3025 27 12.2677 26.994 12.2335 26.9814C4.79371 24.2487 0.678279 17.3199 0.000573557 6.38748C-0.00842651 6.24138 0.0893742 6.10998 0.231875 6.07668C3.633 5.28588 6.64442 4.04507 9.18184 2.38845C9.32074 2.29785 9.50644 2.33685 9.59704 2.47575C9.68764 2.61466 9.64864 2.80066 9.50974 2.89096C6.97532 4.54547 3.984 5.79378 0.615578 6.60258C1.33078 17.2755 5.20021 23.7591 12.4402 26.4186C12.5959 26.4756 12.6754 26.6481 12.6184 26.8035C12.574 26.9247 12.4591 27 12.337 27Z" fill="#0C0C0C"/>
<path d="M12.3371 27C12.2765 27 12.2165 26.9814 12.1655 26.946C12.0851 26.8899 12.0371 26.7981 12.0371 26.7V19.4477C12.0371 19.2818 12.1715 19.1477 12.3371 19.1477C12.5027 19.1477 12.6371 19.2818 12.6371 19.4477V26.265C19.6173 23.5146 23.3565 17.075 24.0582 6.60255C19.4766 5.50274 15.6392 3.61213 12.6371 0.976608V5.08874C12.6371 5.25434 12.5027 5.38874 12.3371 5.38874C12.1715 5.38874 12.0371 5.25434 12.0371 5.08874V0.299803C12.0371 0.180402 12.1079 0.0721015 12.2177 0.0247012C12.3275 -0.0226992 12.455 -0.000799009 12.542 0.0811016C15.5885 2.93202 19.5921 4.94954 24.4422 6.07695C24.585 6.11025 24.6828 6.24165 24.6735 6.38775C23.9958 17.3198 19.8804 24.249 12.4406 26.9814C12.407 26.9937 12.3719 27 12.3371 27Z" fill="#0C0C0C"/>
<path d="M12.3365 19.7477C10.8701 19.7477 9.44453 19.2299 8.32162 18.2903C8.19472 18.1841 8.17792 17.9948 8.28412 17.8679C8.39032 17.7407 8.57932 17.7236 8.70682 17.8304C9.72173 18.68 11.0108 19.148 12.3365 19.148C15.456 19.148 17.9937 16.6103 17.9937 13.4909C17.9937 10.3715 15.456 7.83316 12.3365 7.83316C9.21712 7.83316 6.67911 10.3709 6.67911 13.4906C6.67911 13.6562 6.54471 13.7906 6.3791 13.7906C6.2135 13.7906 6.0791 13.6562 6.0791 13.4906C6.0791 10.0403 8.88622 7.23315 12.3365 7.23315C15.7869 7.23315 18.5937 10.0403 18.5937 13.4906C18.5937 16.9409 15.7869 19.7477 12.3365 19.7477Z" fill="#0C0C0C"/>
<path d="M11.9526 15.8008C11.8665 15.8008 11.7843 15.7636 11.7276 15.6991L9.77701 13.4824C9.66751 13.3579 9.67951 13.1686 9.80401 13.0591C9.92851 12.9493 10.1181 12.9619 10.2273 13.0861L11.9511 15.0445L15.2397 11.2444C15.3477 11.119 15.5376 11.1058 15.6628 11.2138C15.7882 11.3224 15.8017 11.5117 15.6934 11.6371L12.1794 15.697C12.1227 15.7627 12.0405 15.8005 11.9538 15.8008C11.9535 15.8008 11.9529 15.8008 11.9526 15.8008Z" fill="#0C0C0C"/>
</svg>
