<svg width="24" height="27" viewBox="0 0 24 27" fill="none" xmlns="http://www.w3.org/2000/svg">
<path d="M11.993 21.4188C15.538 21.4188 18.4118 18.545 18.4118 15C18.4118 11.455 15.538 8.58118 11.993 8.58118C8.44801 8.58118 5.57422 11.455 5.57422 15C5.57422 18.545 8.44801 21.4188 11.993 21.4188Z" fill="#AECDFB"/>
<path d="M11.9934 23.5563C9.98966 23.5563 8.04146 22.8492 6.50756 21.5646C6.38066 21.4584 6.36386 21.2691 6.47006 21.1422C6.57626 21.0147 6.76526 20.9979 6.89276 21.1047C8.31896 22.2984 10.1304 22.9563 11.9934 22.9563C16.377 22.9563 19.9434 19.3899 19.9434 15.0063C19.9434 10.6227 16.377 7.0563 11.9934 7.0563C7.70996 7.0563 4.20686 10.461 4.04906 14.7063H5.35196C5.51756 14.7063 5.65196 14.8404 5.65196 15.0063C5.65196 15.1722 5.51756 15.3063 5.35196 15.3063H3.74336C3.57776 15.3063 3.44336 15.1722 3.44336 15.0063C3.44336 10.2918 7.27886 6.4563 11.9934 6.4563C16.7079 6.4563 20.5434 10.2918 20.5434 15.0063C20.5434 19.7208 16.7079 23.5563 11.9934 23.5563Z" fill="#0C0C0C"/>
<path d="M11.9937 27C5.3805 27 0 21.6195 0 15.0063C0 9.2271 4.0698 4.3161 9.714 3.2322V2.3868H8.4099C8.2443 2.3868 8.1099 2.2524 8.1099 2.0868C8.1099 0.936 9.0459 0 10.1967 0H13.7907C14.9415 0 15.8775 0.936 15.8775 2.0868C15.8775 2.2524 15.7434 2.3868 15.5775 2.3868H14.2731V3.2322C19.9179 4.3158 23.9874 9.2262 23.9874 15.0063C23.9874 21.6195 18.6072 27 11.9937 27ZM10.314 3.4476C10.3143 3.4506 10.3146 3.4539 10.3149 3.4566C10.3281 3.612 10.2219 3.7515 10.0683 3.7776C4.5819 4.7118 0.6 9.4341 0.6 15.0063C0.6 21.2889 5.7111 26.4 11.9937 26.4C18.2763 26.4 23.3874 21.2889 23.3874 15.0063C23.3874 9.4329 19.4043 4.7106 13.9161 3.7773C13.7625 3.7512 13.6545 3.6117 13.6677 3.4563C13.6686 3.4434 13.6707 3.4305 13.6734 3.4182V2.0868C13.6734 1.9212 13.8075 1.7868 13.9734 1.7868H15.2472C15.108 1.1103 14.508 0.6 13.7907 0.6H10.1967C9.4797 0.6 8.8794 1.1103 8.7405 1.7868H10.0143C10.1799 1.7868 10.3143 1.9212 10.3143 2.0868V3.4476H10.314Z" fill="#0C0C0C"/>
<path d="M11.323 18.5841H7.36058C7.24238 18.5841 7.13528 18.5148 7.08698 18.4068C7.03838 18.2991 7.05788 18.1731 7.13648 18.0849L10.615 14.1732C11.2069 13.5078 11.1469 12.4851 10.4815 11.8932C9.81578 11.3016 8.79338 11.3613 8.20118 12.0267C8.09138 12.1503 7.90148 12.1617 7.77758 12.0516C7.65368 11.9415 7.64258 11.7519 7.75268 11.628C8.56418 10.7154 9.96698 10.6332 10.8799 11.445C11.7925 12.2568 11.8747 13.6596 11.0629 14.5722L8.02868 17.9841H11.323C11.4886 17.9841 11.623 18.1182 11.623 18.2841C11.623 18.45 11.4886 18.5841 11.323 18.5841Z" fill="#0C0C0C"/>
<path d="M15.5526 18.5841C15.3867 18.5841 15.2526 18.45 15.2526 18.2841V17.091H12.0882C11.9793 17.091 11.8791 17.0322 11.826 16.9371C11.7732 16.842 11.7756 16.7259 11.8329 16.6332L15.2973 11.0271C15.3675 10.9131 15.5049 10.8591 15.6345 10.8963C15.7635 10.9329 15.8526 11.0508 15.8526 11.1849V16.491H16.893C17.0589 16.491 17.193 16.6251 17.193 16.791C17.193 16.9569 17.0589 17.091 16.893 17.091H15.8526V18.2844C15.8526 18.45 15.7185 18.5841 15.5526 18.5841ZM12.6261 16.491H15.2526V12.2412L12.6261 16.491Z" fill="#0C0C0C"/>
<path d="M18.9134 15.3066H18.6351C18.4691 15.3066 18.335 15.1724 18.335 15.0065C18.335 14.8405 18.4691 14.7063 18.6351 14.7063H18.9134C19.0794 14.7063 19.2135 14.8405 19.2135 15.0065C19.2135 15.1724 19.0794 15.3066 18.9134 15.3066Z" fill="#0C0C0C"/>
<path d="M11.9945 8.66506C11.8288 8.66506 11.6943 8.53059 11.6943 8.3649V8.08666C11.6943 7.92097 11.8288 7.7865 11.9945 7.7865C12.1602 7.7865 12.2947 7.92097 12.2947 8.08666V8.3649C12.2947 8.53089 12.1602 8.66506 11.9945 8.66506Z" fill="#0C0C0C"/>
<path d="M11.9945 22.2263C11.8288 22.2263 11.6943 22.0921 11.6943 21.9261V21.6479C11.6943 21.4819 11.8288 21.3477 11.9945 21.3477C12.1602 21.3477 12.2947 21.4819 12.2947 21.6479V21.9261C12.2947 22.0921 12.1602 22.2263 11.9945 22.2263Z" fill="#0C0C0C"/>
</svg>
