<svg width="28" height="28" viewBox="0 0 28 28" fill="none" xmlns="http://www.w3.org/2000/svg">
<path fill-rule="evenodd" clip-rule="evenodd" d="M24.666 21.3705V6.62951C24.666 5.57406 24.0963 4.91511 23.4709 4.72324C21.3228 4.06419 18.0291 3.33332 13.9993 3.33332C9.96963 3.33332 6.67591 4.06419 4.52775 4.72324C3.90238 4.91511 3.33268 5.57406 3.33268 6.62951V21.3705C3.33268 22.4259 3.90238 23.0849 4.52775 23.2768C6.67591 23.9357 9.96963 24.6667 13.9993 24.6667C18.0291 24.6667 21.3228 23.9357 23.4709 23.2768C24.0963 23.0849 24.666 22.4259 24.666 21.3705ZM3.74562 2.17386C1.81434 2.76636 0.666016 4.60939 0.666016 6.62951V21.3705C0.666016 23.3907 1.81434 25.2336 3.74562 25.8261C6.09006 26.5453 9.65073 27.3333 13.9993 27.3333C18.348 27.3333 21.9087 26.5453 24.2531 25.8261C26.1844 25.2336 27.3327 23.3907 27.3327 21.3705V6.62951C27.3327 4.60939 26.1844 2.76636 24.2531 2.17386C21.9087 1.45459 18.348 0.666656 13.9993 0.666656C9.65073 0.666656 6.09006 1.45459 3.74562 2.17386Z" fill="white"/>
</svg>
